<svg id="Layer_1" data-name="Layer 1" xmlns="http://www.w3.org/2000/svg" viewBox="0 0 691.67 198.03"><defs><style>.cls-1{fill:#009ad8;stroke:#009ad8;stroke-miterlimit:11.34;stroke-width:15px;}.cls-2{font-size:167.35px;font-family:MyriadPro-Regular, Myriad Pro;letter-spacing:0.01em;}.cls-3{letter-spacing:0em;}</style></defs><path class="cls-1" d="M972.6,363.44a108,108,0,0,0-13.79,2A56,56,0,0,0,960,350.3c-2-34.91-36.11-60.67-76.11-57.56h0c-18.9,1.47-36.67,9.33-49.53,21.9a42.35,42.35,0,0,0-32.55-11.38c-23.58,1.83-41.6,22-40.25,45.11h0a40.9,40.9,0,0,0,2.22,11.11c-36.21,6.09-62.22,29.81-60.73,55.39C704.7,443,738.69,463.17,779,460a98.61,98.61,0,0,0,39.78-11.58c11.18,18.28,35.5,28.85,61.67,26.81,18.17-1.41,35.15-8.78,46.81-20.3,14.11,8,32.48,11.64,51.27,10.18,40.31-3.14,71.65-28.45,70-56.53S1012.9,360.3,972.6,363.44Z" transform="translate(-364.43 -284.99)"/><text class="cls-2" transform="translate(0 148.13)">M<tspan class="cls-3" x="136.56" y="0">ist</tspan></text></svg>