<svg id="Layer_1" data-name="Layer 1" xmlns="http://www.w3.org/2000/svg" viewBox="0 0 682.96 198.03"><defs><style>.cls-1{fill:#009ad8;stroke:#009ad8;stroke-miterlimit:11.34;stroke-width:15px;}</style></defs><path class="cls-1" d="M973.6,363.44a108,108,0,0,0-13.79,2A56,56,0,0,0,961,350.3c-2-34.91-36.11-60.67-76.11-57.56h0c-18.9,1.47-36.67,9.33-49.53,21.9a42.35,42.35,0,0,0-32.55-11.38c-23.58,1.83-41.6,22-40.25,45.11h0a40.9,40.9,0,0,0,2.22,11.11c-36.21,6.09-62.22,29.81-60.73,55.39C705.7,443,739.69,463.17,780,460a98.61,98.61,0,0,0,39.78-11.58c11.18,18.28,35.5,28.85,61.67,26.81,18.17-1.41,35.15-8.78,46.81-20.3,14.11,8,32.48,11.64,51.27,10.18,40.31-3.14,71.65-28.45,70-56.53S1013.9,360.3,973.6,363.44Z" transform="translate(-374.13 -284.99)"/><path d="M472.21,383.58c-.84-15.73-1.84-34.64-1.68-48.7H470c-3.85,13.22-8.53,27.28-14.22,42.84l-19.92,54.73H424.84L406.6,378.73c-5.35-15.9-9.87-30.46-13.05-43.85h-.34c-.33,14.06-1.17,33-2.17,49.87l-3,48.37h-13.9L382,320.32h18.58l19.24,54.56c4.69,13.89,8.54,26.27,11.38,38h.51c2.84-11.38,6.86-23.77,11.88-38l20.08-54.56h18.58l7,112.8H475.05Z" transform="translate(-374.13 -284.99)"/><path d="M529.6,329.36c.17,5-3.51,9-9.37,9a8.75,8.75,0,0,1-8.87-9,9,9,0,0,1,9.2-9.21C526.09,320.15,529.6,324.17,529.6,329.36ZM513.2,433.12v-81h14.73v81Z" transform="translate(-374.13 -284.99)"/><path d="M550.35,418.06a38.65,38.65,0,0,0,19.42,5.85c10.71,0,15.73-5.35,15.73-12.05,0-7-4.19-10.87-15.06-14.89C555.88,391.78,549,383.75,549,374c0-13.05,10.55-23.76,28-23.76a40.43,40.43,0,0,1,19.92,5L593.2,366a31.52,31.52,0,0,0-16.57-4.69c-8.71,0-13.56,5-13.56,11.05,0,6.69,4.85,9.7,15.4,13.72,14.06,5.36,21.25,12.38,21.25,24.43,0,14.23-11,24.27-30.29,24.27-8.87,0-17.07-2.17-22.76-5.52Z" transform="translate(-374.13 -284.99)"/><path d="M636.37,328.85v23.27h21.09v11.21H636.37V407c0,10,2.85,15.73,11,15.73a32.83,32.83,0,0,0,8.53-1l.67,11c-2.84,1.18-7.36,2-13,2-6.86,0-12.39-2.17-15.9-6.19-4.19-4.35-5.69-11.55-5.69-21.09V363.33H609.43V352.12H622V332.7Z" transform="translate(-374.13 -284.99)"/></svg>