<svg xmlns="http://www.w3.org/2000/svg" xmlns:xlink="http://www.w3.org/1999/xlink" viewBox="0 0 344.43 170.14"><defs><style>.cls-1,.cls-3{fill:none;}.cls-2{clip-path:url(#clip-path);}.cls-3{stroke:#37b6ff;stroke-miterlimit:11.34;stroke-width:15px;}.cls-4{font-size:41px;fill:#37b6ff;stroke:#3fa9f5;stroke-miterlimit:10;font-family:MyriadPro-Regular, Myriad Pro;}.cls-5{letter-spacing:0.01em;}.cls-6{letter-spacing:0.01em;}.cls-7{letter-spacing:0em;}.cls-8{letter-spacing:0.02em;}.cls-9{letter-spacing:0em;}.cls-10{letter-spacing:-0.01em;}</style><clipPath id="clip-path" transform="translate(-0.77 -3.67)"><path id="mask" class="cls-1" d="M-.4,0V192H149.34V0ZM113,67.94c-7.15.48-14.13-.72-19.49-3.35-4.44,3.79-10.9,6.21-17.8,6.68-9.95.67-19.2-2.81-23.45-8.82a42,42,0,0,1-15.13,3.81c-15.32,1-28.25-5.62-28.87-14.85C7.73,43,17.62,35.2,31.39,33.2a11.68,11.68,0,0,1-.85-3.66h0C30,22,36.88,15.32,45.84,14.71a17.66,17.66,0,0,1,12.38,3.75,32.74,32.74,0,0,1,18.83-7.2h0c15.21-1,28.17,7.44,28.94,18.92a16.16,16.16,0,0,1-.45,5,45.46,45.46,0,0,1,5.24-.66c15.32-1,28.25,5.62,28.87,14.85S128.36,66.91,113,67.94Z"/></clipPath></defs><g id="Layer_1" data-name="Layer 1"><g class="cls-2"><g id="Rain"><path d="M24.21,161.94c.35-.74.71-1.47,1.06-2.21-.1.56-.19,1.14-.29,1.71a33.39,33.39,0,0,0,1.72-4.25C28.8,150,30,143.46,32,136.4c3.05-10.67,7.12-20.79,9.81-31.34.3-1,.28-1.87-.07-1.88s-.84.7-1.15,1.71c-5.1,15.52-10.5,31.19-17.44,45a44.66,44.66,0,0,0-2.11,4c-2,4.91-2.51,10.15-1.24,11.7s3.91-1.17,5.87-6.08Z" transform="translate(-0.77 -3.67)"/><path d="M40.82,162.92l1.08-3.5c-.1.85-.19,1.71-.29,2.57.63-2.17,1.29-4.3,1.74-6.64,2.11-11,3.31-20.89,5.33-31.7,3.07-16.36,7.2-32.17,9.9-48.26.3-1.56.28-2.79-.08-2.73s-.86,1.25-1.17,2.79c-5.16,24-10.61,48.21-17.66,70.21-.63,2-1.41,3.61-2.13,6.34-2,7.67-2.53,15.47-1.21,17.4s4-2.71,6-10.38Z" transform="translate(-0.77 -3.67)"/><path d="M59.65,162.76c.29-1.81.6-3.6.9-5.41-.06,1.27-.1,2.58-.16,3.87.52-3.35,1.07-6.64,1.39-10.2C63.33,134.34,64,119.39,65.46,103,67.67,78.1,71,53.83,72.83,29.44c.22-2.37.13-4.19-.23-4s-.79,2-1,4.37c-3.9,36.57-8.08,73.6-14,107.64-.52,3-1.23,5.64-1.81,9.84-1.58,11.77-1.71,23.43-.28,26s3.87-4.85,5.46-16.61Z" transform="translate(-0.77 -3.67)"/><path d="M123.74,161.94c-.36-.74-.72-1.47-1.07-2.21.1.56.19,1.14.29,1.71a31.94,31.94,0,0,1-1.71-4.25c-2.1-7.15-3.3-13.73-5.31-20.79-3-10.67-7.12-20.79-9.82-31.34-.3-1-.28-1.87.07-1.88s.84.7,1.15,1.71c5.11,15.52,10.5,31.19,17.45,45a42.36,42.36,0,0,1,2.1,4c2,4.91,2.52,10.15,1.24,11.7s-3.9-1.17-5.86-6.08Z" transform="translate(-0.77 -3.67)"/><path d="M107.12,162.92c-.35-1.17-.72-2.33-1.08-3.5.1.85.19,1.71.29,2.57-.63-2.17-1.28-4.3-1.73-6.64-2.12-11-3.31-20.89-5.34-31.7-3.06-16.36-7.19-32.17-9.9-48.26-.3-1.56-.27-2.79.09-2.73s.85,1.25,1.17,2.79c5.15,24,10.6,48.21,17.65,70.21.63,2,1.42,3.61,2.14,6.34,2,7.67,2.52,15.47,1.21,17.4s-4-2.71-6-10.38Z" transform="translate(-0.77 -3.67)"/><path d="M88.3,162.76c-.3-1.81-.61-3.6-.9-5.41,0,1.27.1,2.58.15,3.87-.52-3.35-1.06-6.64-1.39-10.2C84.62,134.34,84,119.39,82.49,103,80.28,78.1,77,53.83,75.12,29.44c-.22-2.37-.13-4.19.23-4s.79,2,1,4.37c3.9,36.57,8.09,73.6,14,107.64.53,3,1.23,5.64,1.81,9.84,1.59,11.77,1.72,23.43.29,26s-3.88-4.85-5.46-16.61Z" transform="translate(-0.77 -3.67)"/></g><path class="cls-3" d="M110.78,34.5a45.46,45.46,0,0,0-5.24.66,16.16,16.16,0,0,0,.45-5c-.77-11.48-13.73-19.95-28.94-18.92h0a32.74,32.74,0,0,0-18.83,7.2,17.66,17.66,0,0,0-12.38-3.75c-9,.61-15.81,7.25-15.3,14.83h0a11.68,11.68,0,0,0,.85,3.66C17.62,35.2,7.73,43,8.29,51.41c.62,9.23,13.55,15.88,28.87,14.85a42,42,0,0,0,15.13-3.81c4.25,6,13.5,9.49,23.45,8.82,6.9-.47,13.36-2.89,17.8-6.68,5.36,2.63,12.34,3.83,19.49,3.35,15.33-1,27.24-9.35,26.62-18.59S126.1,33.47,110.78,34.5Z" transform="translate(-0.77 -3.67)"/></g></g><g id="Text"><text class="cls-4" transform="translate(160.71 79.76)"><tspan class="cls-5">M</tspan><tspan x="33.46" y="0">ist Cloud</tspan><tspan class="cls-6" x="0" y="49.2">S</tspan><tspan class="cls-7" x="20.46" y="49.2">e</tspan><tspan class="cls-8" x="41" y="49.2">r</tspan><tspan class="cls-9" x="55.43" y="49.2">vi</tspan><tspan class="cls-10" x="84.75" y="49.2">c</tspan><tspan x="102.87" y="49.2">es</tspan></text></g></svg>