<svg xmlns="http://www.w3.org/2000/svg" xmlns:xlink="http://www.w3.org/1999/xlink" viewBox="0 0 409.9 496.25"><defs><style>.cls-1,.cls-3{fill:none;}.cls-2{clip-path:url(#clip-path);}.cls-3{stroke:#37b6ff;stroke-miterlimit:11.34;stroke-width:15px;}</style><clipPath id="clip-path" transform="translate(-339.55 -109.07)"><path class="cls-1" d="M321,83V660H771V83ZM661.88,287.17c-21.48,1.45-42.46-2.15-58.59-10.06C590,288.5,570.56,295.78,549.8,297.18c-29.9,2-57.69-8.44-70.46-26.5-13.28,6.37-29.09,10.35-45.45,11.45-46.06,3.1-84.9-16.88-86.77-44.63-1.7-25.27,28-48.71,69.4-54.73a35.61,35.61,0,0,1-2.55-11h0C412.44,149,433,129,460,127.22c13.84-.94,27.37,3.15,37.2,11.25,14.7-12.42,35-20.19,56.6-21.65h0c45.71-3.07,84.64,22.39,87,56.88a48,48,0,0,1-1.36,15,139.71,139.71,0,0,1,15.75-2c46-3.1,84.9,16.88,86.77,44.62S707.93,284.07,661.88,287.17Z"/></clipPath></defs><g id="rain"><g class="cls-2"><g id="Rain-2" data-name="Rain"><path d="M395,569.67c1.06-2.24,2.15-4.42,3.2-6.65-.3,1.69-.57,3.43-.87,5.14a99.23,99.23,0,0,0,5.15-12.77c6.31-21.48,9.92-41.28,16-62.47,9.16-32.08,21.4-62.49,29.49-94.2.9-3.05.84-5.6-.21-5.65s-2.52,2.12-3.45,5.13c-15.35,46.67-31.56,93.74-52.42,135.37-1.87,3.73-4.18,6.71-6.33,12-5.89,14.75-7.56,30.51-3.73,35.16s11.73-3.52,17.62-18.28Z" transform="translate(-339.55 -109.07)"/><path d="M444.87,572.62c1.07-3.54,2.18-7,3.25-10.53-.3,2.54-.57,5.15-.87,7.73,1.89-6.52,3.86-12.93,5.21-20,6.37-33,10-62.78,16-95.27,9.22-49.17,21.61-96.68,29.74-145,.9-4.69.83-8.39-.25-8.2s-2.57,3.74-3.51,8.38c-15.49,72-31.87,144.89-53.05,211-1.9,5.93-4.26,10.86-6.43,19.07-6,23-7.59,46.47-3.63,52.29s12-8.15,18-31.19Z" transform="translate(-339.55 -109.07)"/><path d="M501.45,572.14c.89-5.47,1.82-10.83,2.7-16.28-.16,3.84-.29,7.76-.45,11.63,1.55-10,3.19-20,4.17-30.63,4.64-50.15,6.66-95.06,11-144.42,6.64-74.74,16.56-147.68,22.15-221,.66-7.13.39-12.6-.69-12.09-1,.28-2.38,6.07-3.08,13.13C525.56,282.42,513,393.72,495.22,496c-1.59,9.17-3.7,17-5.44,29.57-4.77,35.37-5.15,70.4-.86,78.19s11.65-14.56,16.41-49.92Z" transform="translate(-339.55 -109.07)"/><path d="M694.05,569.67c-1.06-2.24-2.15-4.42-3.2-6.65.3,1.69.57,3.43.87,5.14a99.23,99.23,0,0,1-5.15-12.77c-6.31-21.48-9.92-41.28-16-62.47-9.16-32.08-21.4-62.49-29.49-94.2-.9-3.05-.84-5.6.21-5.65s2.52,2.12,3.45,5.13c15.35,46.67,31.56,93.74,52.42,135.37,1.87,3.73,4.18,6.71,6.33,12,5.89,14.75,7.56,30.51,3.73,35.16s-11.73-3.52-17.62-18.28Z" transform="translate(-339.55 -109.07)"/><path d="M644.13,572.62c-1.07-3.54-2.18-7-3.25-10.53.3,2.54.57,5.15.87,7.73-1.89-6.52-3.86-12.93-5.21-20-6.37-33-10-62.78-16-95.27-9.22-49.17-21.61-96.68-29.74-145-.9-4.69-.83-8.39.25-8.2s2.57,3.74,3.51,8.38c15.49,72,31.87,144.89,53.05,211,1.9,5.93,4.26,10.86,6.43,19.07,6,23,7.59,46.47,3.63,52.29s-12-8.15-18-31.19Z" transform="translate(-339.55 -109.07)"/><path d="M587.55,572.14c-.89-5.47-1.82-10.83-2.7-16.28.16,3.84.29,7.76.45,11.63-1.55-10-3.19-20-4.17-30.63-4.64-50.15-6.66-95.06-11-144.42-6.64-74.74-16.56-147.68-22.15-221-.66-7.13-.39-12.6.69-12.09,1,.28,2.38,6.07,3.08,13.13C563.44,282.42,576,393.72,593.78,496c1.59,9.17,3.7,17,5.44,29.57,4.77,35.37,5.15,70.4.86,78.19s-11.65-14.56-16.41-49.92Z" transform="translate(-339.55 -109.07)"/></g></g></g><g id="Cloud"><path class="cls-3" d="M655.11,186.69a139.71,139.71,0,0,0-15.75,2,48,48,0,0,0,1.36-15c-2.32-34.49-41.25-59.95-87-56.88h0c-21.59,1.46-41.9,9.23-56.6,21.65-9.83-8.1-23.36-12.19-37.2-11.25C433,129,412.44,149,414,171.79h0a35.61,35.61,0,0,0,2.55,11c-41.39,6-71.1,29.46-69.4,54.73,1.87,27.75,40.71,47.73,86.77,44.63,16.36-1.1,32.17-5.08,45.45-11.45,12.77,18.06,40.56,28.51,70.46,26.5,20.76-1.4,40.17-8.68,53.49-20.07,16.13,7.91,37.11,11.51,58.59,10.06,46-3.1,81.87-28.11,80-55.86S701.16,183.59,655.11,186.69Z" transform="translate(-339.55 -109.07)"/></g></svg>